M48
; DRILL file {KiCad (5.1.10)-1} date 09/16/21 00:05:59
; FORMAT={-:-/ absolute / metric / decimal}
; #@! TF.CreationDate,2021-09-16T00:05:59+02:00
; #@! TF.GenerationSoftware,Kicad,Pcbnew,(5.1.10)-1
; #@! TF.FileFunction,Plated,1,2,PTH
FMAT,2
METRIC
T1C1.000
%
G90
G05
T1
X119.38Y-60.96
X119.38Y-63.5
X119.38Y-66.04
X119.38Y-68.58
X119.38Y-71.12
X119.38Y-73.66
X119.38Y-76.2
X119.38Y-78.74
X119.38Y-82.8
X119.38Y-85.34
X119.38Y-87.88
X119.38Y-90.42
X119.38Y-92.96
X119.38Y-95.5
X119.38Y-98.04
X119.38Y-100.58
X119.38Y-103.12
X119.38Y-105.66
X139.7Y-115.57
X139.7Y-118.11
X142.24Y-115.57
X142.24Y-118.11
X144.78Y-115.57
X144.78Y-118.11
X147.32Y-115.57
X147.32Y-118.11
X167.64Y-78.74
X167.64Y-81.28
X167.64Y-83.82
X167.64Y-86.36
X167.64Y-88.9
X167.64Y-91.44
X167.64Y-93.98
X167.64Y-96.52
X167.7Y-60.96
X167.7Y-63.5
X167.7Y-66.04
X167.7Y-68.58
X167.7Y-71.12
X167.7Y-73.66
T0
M30
