0
SECTION
2
HEADER
9
$INSUNITS
70
4
9
$ACADVER
1
AC1014
9
$HANDSEED
5
FFFF
0
ENDSEC
0
SECTION
2
TABLES
0
TABLE
2
VPORT
5
8
100
AcDbSymbolTable
0
ENDTAB
0
TABLE
2
LTYPE
5
5
100
AcDbSymbolTable
0
LTYPE
5
14
100
AcDbSymbolTableRecord
100
AcDbLinetypeTableRecord
2
BYBLOCK
70
0
0
LTYPE
5
15
100
AcDbSymbolTableRecord
100
AcDbLinetypeTableRecord
2
BYLAYER
70
0
0
ENDTAB
0
TABLE
2
LAYER
5
2
100
AcDbSymbolTable
70
2
0
LAYER
5
50
100
AcDbSymbolTableRecord
100
AcDbLayerTableRecord
2
0
70
0
6
CONTINUOUS
0
ENDTAB
0
TABLE
2
STYLE
5
3
100
AcDbSymbolTable
70
1
0
STYLE
5
11
100
AcDbSymbolTableRecord
100
AcDbTextStyleTableRecord
2
STANDARD
70
0
0
ENDTAB
0
TABLE
2
VIEW
5
6
100
AcDbSymbolTable
70
0
0
ENDTAB
0
TABLE
2
UCS
5
7
100
AcDbSymbolTable
70
0
0
ENDTAB
0
TABLE
2
APPID
5
9
100
AcDbSymbolTable
70
2
0
APPID
5
12
100
AcDbSymbolTableRecord
100
AcDbRegAppTableRecord
2
ACAD
70
0
0
ENDTAB
0
TABLE
2
DIMSTYLE
5
A
100
AcDbSymbolTable
70
1
0
ENDTAB
0
TABLE
2
BLOCK_RECORD
5
1
100
AcDbSymbolTable
70
1
0
BLOCK_RECORD
5
1F
100
AcDbSymbolTableRecord
100
AcDbBlockTableRecord
2
*MODEL_SPACE
0
BLOCK_RECORD
5
1B
100
AcDbSymbolTableRecord
100
AcDbBlockTableRecord
2
*PAPER_SPACE
0
ENDTAB
0
ENDSEC
0
SECTION
2
BLOCKS
0
BLOCK
5
20
100
AcDbEntity
100
AcDbBlockBegin
2
*MODEL_SPACE
0
ENDBLK
5
21
100
AcDbEntity
100
AcDbBlockEnd
0
BLOCK
5
1C
100
AcDbEntity
100
AcDbBlockBegin
2
*PAPER_SPACE
0
ENDBLK
5
1D
100
AcDbEntity
100
AcDbBlockEnd
0
ENDSEC
0
SECTION
2
ENTITIES
0
LINE
5
100
100
AcDbEntity
8
0
100
AcDbLine
10
-20
20
-3.0000000000000027
30
0
11
-20.000000000000007
21
37
31
0
0
LINE
5
101
100
AcDbEntity
8
0
100
AcDbLine
10
-86.5
20
36.999999999999751
30
0
11
-86.499999999966718
21
-3.0000374721387506
31
0
0
LINE
5
102
100
AcDbEntity
8
0
100
AcDbLine
10
-49.999999769164404
20
6.9999900465410718
30
0
11
-46.999999999998174
21
6.9999900465375777
31
0
0
LINE
5
103
100
AcDbEntity
8
0
100
AcDbLine
10
-46.999999999998174
20
6.9999900465375777
30
0
11
-46.999999999998174
21
26.99999004653758
31
0
0
LINE
5
104
100
AcDbEntity
8
0
100
AcDbLine
10
-46.999999999998174
20
26.99999004653758
30
0
11
-49.99999996538169
21
26.999990046540905
31
0
0
LINE
5
105
100
AcDbEntity
8
0
100
AcDbLine
10
-49.99999996538169
20
26.999990046540905
30
0
11
-49.999999769164404
21
6.9999900465410718
31
0
0
LWPOLYLINE
5
106
100
AcDbEntity
8
0
100
AcDbPolyline
90
4
70
1
43
0.0
10
-74.999999965373092
20
33.999989756648937
10
-49.999999965373107
20
33.999990045240331
10
-49.999999999998167
20
36.999990045240331
10
-75.00000000008616
20
36.999990045240331
0
LWPOLYLINE
5
107
100
AcDbEntity
8
0
100
AcDbPolyline
90
4
70
1
43
0.0
10
-74.999990313455669
20
-2.098342798250903e-05
10
-49.999990313459541
20
-7.0780276523185748e-06
10
-49.999988644805612
20
-3.0000070780271901
10
-74.999988644889569
20
-3.0000212720189112
0
LINE
5
108
100
AcDbEntity
8
0
100
AcDbLine
10
-20.000000000000007
20
37
30
0
11
-19.999999999999979
21
40.000000000000007
31
0
0
LINE
5
109
100
AcDbEntity
8
0
100
AcDbLine
10
-19.999999999999979
20
40.000000000000007
30
0
11
-86.499999999999943
21
39.999999999999751
31
0
0
LINE
5
110
100
AcDbEntity
8
0
100
AcDbLine
10
-86.499999999999943
20
39.999999999999751
30
0
11
-86.5
21
36.999999999999751
31
0
0
LINE
5
111
100
AcDbEntity
8
0
100
AcDbLine
10
-20
20
-3.0000000000000027
30
0
11
-20
21
-9.6960746906493931
31
0
0
LINE
5
112
100
AcDbEntity
8
0
100
AcDbLine
10
-86.499999999966718
20
-6.0000374721383354
30
0
11
-86.499999999966718
21
-3.0000374721387506
31
0
0
LINE
5
113
100
AcDbEntity
8
0
100
AcDbLine
10
-74.999988644889569
20
-3.0000212720189112
30
0
11
-49.999999999998167
21
-3.0000099547596619
31
0
0
LINE
5
114
100
AcDbEntity
8
0
100
AcDbLine
10
-20
20
-9.6960746906493931
30
0
11
-19.417014513466601
21
-105.99835012233264
31
0
0
LWPOLYLINE
5
115
100
AcDbEntity
8
0
100
AcDbPolyline
90
4
70
1
43
0.0
10
-26.391007992887911
20
-97.820911743435346
10
-23.404061475176089
20
-97.541357633588675
10
-31.790684770408859
20
-7.9329621022331631
10
-34.777631288121206
20
-8.2125162120743056
0
LINE
5
116
100
AcDbEntity
8
0
100
AcDbLine
10
-29.135455059321327
20
-106.05718268640834
30
0
11
-38.500000573694706
21
-6.0000000894069672
31
0
0
LINE
5
117
100
AcDbEntity
8
0
100
AcDbLine
10
-19.417014513466601
20
-105.99835012233264
30
0
11
-29.135455059321327
21
-106.05718268640834
31
0
0
LINE
5
118
100
AcDbEntity
8
0
100
AcDbLine
10
-86.499999999966718
20
-6.0000374721383354
30
0
11
-38.499997074972491
21
-6.0000374721381018
31
0
0
LINE
5
119
100
AcDbEntity
8
0
100
AcDbLine
10
-49.999988644805612
20
-3.0000070780271901
30
0
11
-49.999990313459541
21
-7.0780276525596251e-06
31
0
0
LINE
5
120
100
AcDbEntity
8
0
100
AcDbLine
10
-49.999990313459541
20
-7.0780276525596251e-06
30
0
11
-74.999990313455669
21
-2.098342798250903e-05
31
0
0
LINE
5
121
100
AcDbEntity
8
0
100
AcDbLine
10
-74.999990313455669
20
-2.098342798250903e-05
30
0
11
-74.999988644889569
21
-3.0000212720189112
31
0
0
ENDSEC
0
SECTION
2
OBJECTS
0
DICTIONARY
5
C
100
AcDbDictionary
3
ACAD_GROUP
350
D
3
ACAD_MLINESTYLE
350
17
0
DICTIONARY
5
D
100
AcDbDictionary
0
DICTIONARY
5
1A
330
C
100
AcDbDictionary
0
DICTIONARY
5
17
100
AcDbDictionary
0
ENDSEC
0
EOF
