0
SECTION
2
HEADER
9
$INSUNITS
70
4
9
$ACADVER
1
AC1014
9
$HANDSEED
5
FFFF
0
ENDSEC
0
SECTION
2
TABLES
0
TABLE
2
VPORT
5
8
100
AcDbSymbolTable
0
ENDTAB
0
TABLE
2
LTYPE
5
5
100
AcDbSymbolTable
0
LTYPE
5
14
100
AcDbSymbolTableRecord
100
AcDbLinetypeTableRecord
2
BYBLOCK
70
0
0
LTYPE
5
15
100
AcDbSymbolTableRecord
100
AcDbLinetypeTableRecord
2
BYLAYER
70
0
0
ENDTAB
0
TABLE
2
LAYER
5
2
100
AcDbSymbolTable
70
2
0
LAYER
5
50
100
AcDbSymbolTableRecord
100
AcDbLayerTableRecord
2
0
70
0
6
CONTINUOUS
0
ENDTAB
0
TABLE
2
STYLE
5
3
100
AcDbSymbolTable
70
1
0
STYLE
5
11
100
AcDbSymbolTableRecord
100
AcDbTextStyleTableRecord
2
STANDARD
70
0
0
ENDTAB
0
TABLE
2
VIEW
5
6
100
AcDbSymbolTable
70
0
0
ENDTAB
0
TABLE
2
UCS
5
7
100
AcDbSymbolTable
70
0
0
ENDTAB
0
TABLE
2
APPID
5
9
100
AcDbSymbolTable
70
2
0
APPID
5
12
100
AcDbSymbolTableRecord
100
AcDbRegAppTableRecord
2
ACAD
70
0
0
ENDTAB
0
TABLE
2
DIMSTYLE
5
A
100
AcDbSymbolTable
70
1
0
ENDTAB
0
TABLE
2
BLOCK_RECORD
5
1
100
AcDbSymbolTable
70
1
0
BLOCK_RECORD
5
1F
100
AcDbSymbolTableRecord
100
AcDbBlockTableRecord
2
*MODEL_SPACE
0
BLOCK_RECORD
5
1B
100
AcDbSymbolTableRecord
100
AcDbBlockTableRecord
2
*PAPER_SPACE
0
ENDTAB
0
ENDSEC
0
SECTION
2
BLOCKS
0
BLOCK
5
20
100
AcDbEntity
100
AcDbBlockBegin
2
*MODEL_SPACE
0
ENDBLK
5
21
100
AcDbEntity
100
AcDbBlockEnd
0
BLOCK
5
1C
100
AcDbEntity
100
AcDbBlockBegin
2
*PAPER_SPACE
0
ENDBLK
5
1D
100
AcDbEntity
100
AcDbBlockEnd
0
ENDSEC
0
SECTION
2
ENTITIES
0
LINE
5
100
100
AcDbEntity
8
0
100
AcDbLine
10
0
20
60
30
0
11
25
21
60
31
0
0
LINE
5
101
100
AcDbEntity
8
0
100
AcDbLine
10
25
20
60
30
0
11
25
21
49.999999999999993
31
0
0
LINE
5
102
100
AcDbEntity
8
0
100
AcDbLine
10
410
20
50.000000000000007
30
0
11
410
21
60.000000000000007
31
0
0
LINE
5
103
100
AcDbEntity
8
0
100
AcDbLine
10
410
20
60.000000000000007
30
0
11
435
21
60.000000000000007
31
0
0
LINE
5
104
100
AcDbEntity
8
0
100
AcDbLine
10
435
20
60.000000000000007
30
0
11
435
21
65.000000000000014
31
0
0
LINE
5
105
100
AcDbEntity
8
0
100
AcDbLine
10
435
20
65.000000000000014
30
0
11
438
21
64.999999999999986
31
0
0
LINE
5
106
100
AcDbEntity
8
0
100
AcDbLine
10
438
20
64.999999999999986
30
0
11
438
21
89.999999999999986
31
0
0
LINE
5
107
100
AcDbEntity
8
0
100
AcDbLine
10
438
20
89.999999999999986
30
0
11
435
21
90.000000000000014
31
0
0
LINE
5
108
100
AcDbEntity
8
0
100
AcDbLine
10
435
20
90.000000000000014
30
0
11
435
21
100.00000000000001
31
0
0
LINE
5
109
100
AcDbEntity
8
0
100
AcDbLine
10
435
20
100.00000000000001
30
0
11
-2.6645352591003757e-14
21
100.00000000000006
31
0
0
LINE
5
110
100
AcDbEntity
8
0
100
AcDbLine
10
-2.6645352591003757e-14
20
100.00000000000006
30
0
11
-3.3306690738754696e-14
21
90.000000000000057
31
0
0
LINE
5
111
100
AcDbEntity
8
0
100
AcDbLine
10
-3.3306690738754696e-14
20
90.000000000000057
30
0
11
-3.0000000000000338
21
90.000000000000028
31
0
0
LINE
5
112
100
AcDbEntity
8
0
100
AcDbLine
10
-3.0000000000000338
20
90.000000000000028
30
0
11
-3.0000000000000595
21
65.000000000000028
31
0
0
LINE
5
113
100
AcDbEntity
8
0
100
AcDbLine
10
-3.0000000000000595
20
65.000000000000028
30
0
11
-4.7439588951045399e-15
21
65.000000000000028
31
0
0
LINE
5
114
100
AcDbEntity
8
0
100
AcDbLine
10
-4.7439588951045399e-15
20
65.000000000000028
30
0
11
0
21
60
31
0
0
LINE
5
115
100
AcDbEntity
8
0
100
AcDbLine
10
-3.0000000000000595
20
65.000000000000028
30
0
11
-4.7439588951045399e-15
21
65.000000000000028
31
0
0
LINE
5
116
100
AcDbEntity
8
0
100
AcDbLine
10
0
20
60
30
0
11
0
21
62
31
0
0
LWPOLYLINE
5
117
100
AcDbEntity
8
0
100
AcDbPolyline
90
4
70
1
43
0.0
10
93.75
20
65.000000000000014
10
93.75
20
62.000000000000028
10
123.75
20
62.000000000000028
10
123.75
20
65.000000000000014
0
LINE
5
118
100
AcDbEntity
8
0
100
AcDbLine
10
25
20
49.999999999999993
30
0
11
25.000000000000004
21
55
31
0
0
LINE
5
119
100
AcDbEntity
8
0
100
AcDbLine
10
60
20
55
30
0
11
60
21
49.999999999999993
31
0
0
LINE
5
120
100
AcDbEntity
8
0
100
AcDbLine
10
70
20
55
30
0
11
70
21
49.999999999999993
31
0
0
ARC
5
121
100
AcDbEntity
8
0
100
AcDbCircle
10
65
20
55
30
0
40
5
210
0
220
-0
230
1
100
AcDbArc
50
0
51
180
0
ARC
5
122
100
AcDbEntity
8
0
100
AcDbCircle
10
85
20
55
30
0
40
5
210
0
220
0
230
1
100
AcDbArc
50
0
51
180
0
LINE
5
123
100
AcDbEntity
8
0
100
AcDbLine
10
90
20
55
30
0
11
90
21
49.999999999999993
31
0
0
LINE
5
124
100
AcDbEntity
8
0
100
AcDbLine
10
80
20
55
30
0
11
80
21
49.999999999999993
31
0
0
ARC
5
125
100
AcDbEntity
8
0
100
AcDbCircle
10
105
20
55
30
0
40
5
210
0
220
0
230
1
100
AcDbArc
50
0
51
180
0
LINE
5
126
100
AcDbEntity
8
0
100
AcDbLine
10
110
20
55
30
0
11
110
21
49.999999999999993
31
0
0
LINE
5
127
100
AcDbEntity
8
0
100
AcDbLine
10
100
20
55
30
0
11
100
21
49.999999999999993
31
0
0
ARC
5
128
100
AcDbEntity
8
0
100
AcDbCircle
10
125
20
55
30
0
40
5
210
0
220
0
230
1
100
AcDbArc
50
0
51
180
0
LINE
5
129
100
AcDbEntity
8
0
100
AcDbLine
10
130
20
55
30
0
11
130
21
49.999999999999993
31
0
0
LINE
5
130
100
AcDbEntity
8
0
100
AcDbLine
10
120
20
55
30
0
11
120
21
49.999999999999993
31
0
0
ARC
5
131
100
AcDbEntity
8
0
100
AcDbCircle
10
145
20
55
30
0
40
5
210
0
220
0
230
1
100
AcDbArc
50
0
51
180
0
LINE
5
132
100
AcDbEntity
8
0
100
AcDbLine
10
150
20
55
30
0
11
150
21
49.999999999999993
31
0
0
LINE
5
133
100
AcDbEntity
8
0
100
AcDbLine
10
140
20
55
30
0
11
140
21
49.999999999999993
31
0
0
ARC
5
134
100
AcDbEntity
8
0
100
AcDbCircle
10
165
20
55
30
0
40
5
210
0
220
0
230
1
100
AcDbArc
50
0
51
180
0
LINE
5
135
100
AcDbEntity
8
0
100
AcDbLine
10
170
20
55
30
0
11
170
21
49.999999999999993
31
0
0
LINE
5
136
100
AcDbEntity
8
0
100
AcDbLine
10
160
20
55
30
0
11
160
21
49.999999999999993
31
0
0
ARC
5
137
100
AcDbEntity
8
0
100
AcDbCircle
10
185
20
55
30
0
40
5
210
0
220
0
230
1
100
AcDbArc
50
0
51
180
0
LINE
5
138
100
AcDbEntity
8
0
100
AcDbLine
10
190
20
55
30
0
11
190
21
49.999999999999993
31
0
0
LINE
5
139
100
AcDbEntity
8
0
100
AcDbLine
10
180
20
55
30
0
11
180
21
49.999999999999993
31
0
0
ARC
5
140
100
AcDbEntity
8
0
100
AcDbCircle
10
205
20
55
30
0
40
5
210
0
220
0
230
1
100
AcDbArc
50
0
51
180
0
LINE
5
141
100
AcDbEntity
8
0
100
AcDbLine
10
210
20
55
30
0
11
210
21
49.999999999999993
31
0
0
LINE
5
142
100
AcDbEntity
8
0
100
AcDbLine
10
200
20
55
30
0
11
200
21
49.999999999999993
31
0
0
ARC
5
143
100
AcDbEntity
8
0
100
AcDbCircle
10
225
20
55
30
0
40
5
210
0
220
0
230
1
100
AcDbArc
50
0
51
180
0
LINE
5
144
100
AcDbEntity
8
0
100
AcDbLine
10
230
20
55
30
0
11
230
21
49.999999999999993
31
0
0
LINE
5
145
100
AcDbEntity
8
0
100
AcDbLine
10
220
20
55
30
0
11
220
21
49.999999999999993
31
0
0
ARC
5
146
100
AcDbEntity
8
0
100
AcDbCircle
10
245
20
55
30
0
40
5
210
0
220
0
230
1
100
AcDbArc
50
0
51
180
0
LINE
5
147
100
AcDbEntity
8
0
100
AcDbLine
10
250
20
55
30
0
11
250
21
49.999999999999993
31
0
0
LINE
5
148
100
AcDbEntity
8
0
100
AcDbLine
10
240
20
55
30
0
11
240
21
49.999999999999993
31
0
0
ARC
5
149
100
AcDbEntity
8
0
100
AcDbCircle
10
265
20
55
30
0
40
5
210
0
220
0
230
1
100
AcDbArc
50
0
51
180
0
LINE
5
150
100
AcDbEntity
8
0
100
AcDbLine
10
270
20
55
30
0
11
270
21
49.999999999999993
31
0
0
LINE
5
151
100
AcDbEntity
8
0
100
AcDbLine
10
260
20
55
30
0
11
260
21
49.999999999999993
31
0
0
ARC
5
152
100
AcDbEntity
8
0
100
AcDbCircle
10
285
20
55
30
0
40
5
210
0
220
0
230
1
100
AcDbArc
50
0
51
180
0
LINE
5
153
100
AcDbEntity
8
0
100
AcDbLine
10
290
20
55
30
0
11
290
21
49.999999999999993
31
0
0
LINE
5
154
100
AcDbEntity
8
0
100
AcDbLine
10
280
20
55
30
0
11
280
21
49.999999999999993
31
0
0
ARC
5
155
100
AcDbEntity
8
0
100
AcDbCircle
10
305
20
55
30
0
40
5
210
0
220
0
230
1
100
AcDbArc
50
0
51
180
0
LINE
5
156
100
AcDbEntity
8
0
100
AcDbLine
10
310
20
55
30
0
11
310
21
49.999999999999993
31
0
0
LINE
5
157
100
AcDbEntity
8
0
100
AcDbLine
10
300
20
55
30
0
11
300
21
49.999999999999993
31
0
0
ARC
5
158
100
AcDbEntity
8
0
100
AcDbCircle
10
325
20
55
30
0
40
5
210
0
220
0
230
1
100
AcDbArc
50
0
51
180
0
LINE
5
159
100
AcDbEntity
8
0
100
AcDbLine
10
330
20
55
30
0
11
330
21
49.999999999999993
31
0
0
LINE
5
160
100
AcDbEntity
8
0
100
AcDbLine
10
320
20
55
30
0
11
320
21
49.999999999999993
31
0
0
ARC
5
161
100
AcDbEntity
8
0
100
AcDbCircle
10
345
20
55
30
0
40
5
210
0
220
0
230
1
100
AcDbArc
50
0
51
180
0
LINE
5
162
100
AcDbEntity
8
0
100
AcDbLine
10
350
20
55
30
0
11
350
21
49.999999999999993
31
0
0
LINE
5
163
100
AcDbEntity
8
0
100
AcDbLine
10
340
20
55
30
0
11
340
21
49.999999999999993
31
0
0
ARC
5
164
100
AcDbEntity
8
0
100
AcDbCircle
10
365
20
55
30
0
40
5
210
0
220
0
230
1
100
AcDbArc
50
0
51
180
0
LINE
5
165
100
AcDbEntity
8
0
100
AcDbLine
10
370
20
55
30
0
11
370
21
49.999999999999993
31
0
0
LINE
5
166
100
AcDbEntity
8
0
100
AcDbLine
10
360
20
55
30
0
11
360
21
49.999999999999993
31
0
0
LWPOLYLINE
5
167
100
AcDbEntity
8
0
100
AcDbPolyline
90
4
70
1
43
0.0
10
232.5
20
65.000000000000014
10
202.5
20
65.000000000000014
10
202.5
20
62.000000000000028
10
232.5
20
62.000000000000028
0
LWPOLYLINE
5
168
100
AcDbEntity
8
0
100
AcDbPolyline
90
4
70
1
43
0.0
10
341.25
20
65.000000000000014
10
311.25
20
65.000000000000014
10
311.25
20
62.000000000000028
10
341.25
20
62.000000000000028
0
LINE
5
169
100
AcDbEntity
8
0
100
AcDbLine
10
25
20
49.999999999999993
30
0
11
60
21
49.999999999999993
31
0
0
LINE
5
170
100
AcDbEntity
8
0
100
AcDbLine
10
70
20
49.999999999999993
30
0
11
80
21
49.999999999999993
31
0
0
LINE
5
171
100
AcDbEntity
8
0
100
AcDbLine
10
90
20
49.999999999999993
30
0
11
100
21
49.999999999999993
31
0
0
LINE
5
172
100
AcDbEntity
8
0
100
AcDbLine
10
110
20
49.999999999999993
30
0
11
120
21
49.999999999999993
31
0
0
LINE
5
173
100
AcDbEntity
8
0
100
AcDbLine
10
130
20
49.999999999999993
30
0
11
140
21
49.999999999999993
31
0
0
LINE
5
174
100
AcDbEntity
8
0
100
AcDbLine
10
150
20
49.999999999999993
30
0
11
160
21
49.999999999999993
31
0
0
LINE
5
175
100
AcDbEntity
8
0
100
AcDbLine
10
170
20
49.999999999999993
30
0
11
180
21
49.999999999999993
31
0
0
LINE
5
176
100
AcDbEntity
8
0
100
AcDbLine
10
190
20
49.999999999999993
30
0
11
200
21
49.999999999999993
31
0
0
LINE
5
177
100
AcDbEntity
8
0
100
AcDbLine
10
210
20
49.999999999999993
30
0
11
220
21
49.999999999999993
31
0
0
LINE
5
178
100
AcDbEntity
8
0
100
AcDbLine
10
230
20
49.999999999999993
30
0
11
240
21
49.999999999999993
31
0
0
LINE
5
179
100
AcDbEntity
8
0
100
AcDbLine
10
250
20
49.999999999999993
30
0
11
260
21
49.999999999999993
31
0
0
LINE
5
180
100
AcDbEntity
8
0
100
AcDbLine
10
270
20
49.999999999999993
30
0
11
280
21
49.999999999999993
31
0
0
LINE
5
181
100
AcDbEntity
8
0
100
AcDbLine
10
290
20
49.999999999999993
30
0
11
300
21
49.999999999999993
31
0
0
LINE
5
182
100
AcDbEntity
8
0
100
AcDbLine
10
310
20
49.999999999999993
30
0
11
320
21
49.999999999999993
31
0
0
LINE
5
183
100
AcDbEntity
8
0
100
AcDbLine
10
330
20
49.999999999999993
30
0
11
340
21
49.999999999999993
31
0
0
LINE
5
184
100
AcDbEntity
8
0
100
AcDbLine
10
350
20
49.999999999999993
30
0
11
360
21
49.999999999999993
31
0
0
LINE
5
185
100
AcDbEntity
8
0
100
AcDbLine
10
370
20
49.999999999999993
30
0
11
410
21
50.000000000000007
31
0
0
ENDSEC
0
SECTION
2
OBJECTS
0
DICTIONARY
5
C
100
AcDbDictionary
3
ACAD_GROUP
350
D
3
ACAD_MLINESTYLE
350
17
0
DICTIONARY
5
D
100
AcDbDictionary
0
DICTIONARY
5
1A
330
C
100
AcDbDictionary
0
DICTIONARY
5
17
100
AcDbDictionary
0
ENDSEC
0
EOF
