0
SECTION
2
HEADER
9
$INSUNITS
70
4
9
$ACADVER
1
AC1014
9
$HANDSEED
5
FFFF
0
ENDSEC
0
SECTION
2
TABLES
0
TABLE
2
VPORT
5
8
100
AcDbSymbolTable
0
ENDTAB
0
TABLE
2
LTYPE
5
5
100
AcDbSymbolTable
0
LTYPE
5
14
100
AcDbSymbolTableRecord
100
AcDbLinetypeTableRecord
2
BYBLOCK
70
0
0
LTYPE
5
15
100
AcDbSymbolTableRecord
100
AcDbLinetypeTableRecord
2
BYLAYER
70
0
0
ENDTAB
0
TABLE
2
LAYER
5
2
100
AcDbSymbolTable
70
2
0
LAYER
5
50
100
AcDbSymbolTableRecord
100
AcDbLayerTableRecord
2
0
70
0
6
CONTINUOUS
0
ENDTAB
0
TABLE
2
STYLE
5
3
100
AcDbSymbolTable
70
1
0
STYLE
5
11
100
AcDbSymbolTableRecord
100
AcDbTextStyleTableRecord
2
STANDARD
70
0
0
ENDTAB
0
TABLE
2
VIEW
5
6
100
AcDbSymbolTable
70
0
0
ENDTAB
0
TABLE
2
UCS
5
7
100
AcDbSymbolTable
70
0
0
ENDTAB
0
TABLE
2
APPID
5
9
100
AcDbSymbolTable
70
2
0
APPID
5
12
100
AcDbSymbolTableRecord
100
AcDbRegAppTableRecord
2
ACAD
70
0
0
ENDTAB
0
TABLE
2
DIMSTYLE
5
A
100
AcDbSymbolTable
70
1
0
ENDTAB
0
TABLE
2
BLOCK_RECORD
5
1
100
AcDbSymbolTable
70
1
0
BLOCK_RECORD
5
1F
100
AcDbSymbolTableRecord
100
AcDbBlockTableRecord
2
*MODEL_SPACE
0
BLOCK_RECORD
5
1B
100
AcDbSymbolTableRecord
100
AcDbBlockTableRecord
2
*PAPER_SPACE
0
ENDTAB
0
ENDSEC
0
SECTION
2
BLOCKS
0
BLOCK
5
20
100
AcDbEntity
100
AcDbBlockBegin
2
*MODEL_SPACE
0
ENDBLK
5
21
100
AcDbEntity
100
AcDbBlockEnd
0
BLOCK
5
1C
100
AcDbEntity
100
AcDbBlockBegin
2
*PAPER_SPACE
0
ENDBLK
5
1D
100
AcDbEntity
100
AcDbBlockEnd
0
ENDSEC
0
SECTION
2
ENTITIES
0
LINE
5
100
100
AcDbEntity
8
0
100
AcDbLine
10
0
20
0
30
0
11
0
21
7.0000000000000009
31
0
0
LINE
5
101
100
AcDbEntity
8
0
100
AcDbLine
10
0
20
7.0000000000000009
30
0
11
-3.0000000000000004
21
7.0000000000000009
31
0
0
LINE
5
102
100
AcDbEntity
8
0
100
AcDbLine
10
-3.0000000000000004
20
7.0000000000000009
30
0
11
-3.0000000000000004
21
17
31
0
0
LINE
5
103
100
AcDbEntity
8
0
100
AcDbLine
10
0
20
0
30
0
11
93.75
21
0
31
0
0
LINE
5
104
100
AcDbEntity
8
0
100
AcDbLine
10
93.75
20
0
30
0
11
93.75
21
-2.9999999999999947
31
0
0
LINE
5
105
100
AcDbEntity
8
0
100
AcDbLine
10
93.75
20
-2.9999999999999947
30
0
11
123.75
21
-2.9999999999999627
31
0
0
LINE
5
106
100
AcDbEntity
8
0
100
AcDbLine
10
123.75
20
-2.9999999999999627
30
0
11
123.75
21
0
31
0
0
LINE
5
107
100
AcDbEntity
8
0
100
AcDbLine
10
123.75
20
0
30
0
11
202.5
21
1.2399548841366953e-14
31
0
0
LINE
5
108
100
AcDbEntity
8
0
100
AcDbLine
10
202.5
20
1.2399548841366953e-14
30
0
11
202.5
21
-2.9999999999999454
31
0
0
LINE
5
109
100
AcDbEntity
8
0
100
AcDbLine
10
202.5
20
-2.9999999999999454
30
0
11
217.5
21
-2.9999999999999249
31
0
0
LINE
5
110
100
AcDbEntity
8
0
100
AcDbLine
10
202.49999999999997
20
37.000000000000355
30
0
11
217.49999999999997
21
37.000000000000362
31
0
0
LINE
5
111
100
AcDbEntity
8
0
100
AcDbLine
10
-3.0000000000000187
20
27.000000000000007
30
0
11
-3.0000000000000004
21
17.000000000000007
31
0
0
LINE
5
112
100
AcDbEntity
8
0
100
AcDbLine
10
202.5
20
34.000000000000014
30
0
11
202.49999999999997
21
37.000000000000355
31
0
0
LINE
5
113
100
AcDbEntity
8
0
100
AcDbLine
10
123.75
20
34
30
0
11
202.5
21
34.000000000000014
31
0
0
LINE
5
114
100
AcDbEntity
8
0
100
AcDbLine
10
0
20
34
30
0
11
0
21
27
31
0
0
LINE
5
115
100
AcDbEntity
8
0
100
AcDbLine
10
0
20
27
30
0
11
-3.0000000000000187
21
27.000000000000007
31
0
0
LINE
5
116
100
AcDbEntity
8
0
100
AcDbLine
10
123.74999999999997
20
37.000000000000213
30
0
11
123.75
21
34
31
0
0
LINE
5
117
100
AcDbEntity
8
0
100
AcDbLine
10
93.749999999999972
20
37.000000000000213
30
0
11
123.74999999999997
21
37.000000000000213
31
0
0
LINE
5
118
100
AcDbEntity
8
0
100
AcDbLine
10
0
20
34
30
0
11
93.75
21
34
31
0
0
LINE
5
119
100
AcDbEntity
8
0
100
AcDbLine
10
93.75
20
34
30
0
11
93.749999999999972
21
37.000000000000213
31
0
0
LINE
5
120
100
AcDbEntity
8
0
100
AcDbLine
10
438
20
7.0000000000000009
30
0
11
438
21
17
31
0
0
LINE
5
121
100
AcDbEntity
8
0
100
AcDbLine
10
438
20
27.000000000000007
30
0
11
438
21
17.000000000000007
31
0
0
LINE
5
122
100
AcDbEntity
8
0
100
AcDbLine
10
341.25
20
37.000000000000213
30
0
11
311.25000000000006
21
37.000000000000213
31
0
0
LINE
5
123
100
AcDbEntity
8
0
100
AcDbLine
10
435
20
34
30
0
11
341.25
21
34.000000000000007
31
0
0
LINE
5
124
100
AcDbEntity
8
0
100
AcDbLine
10
341.25
20
5.740531871003218e-15
30
0
11
341.25
21
-2.9999999999999947
31
0
0
LINE
5
125
100
AcDbEntity
8
0
100
AcDbLine
10
435
20
27
30
0
11
438
21
27.000000000000007
31
0
0
LINE
5
126
100
AcDbEntity
8
0
100
AcDbLine
10
341.25
20
34.000000000000007
30
0
11
341.25
21
37.000000000000213
31
0
0
LINE
5
127
100
AcDbEntity
8
0
100
AcDbLine
10
311.25
20
-2.9999999999999627
30
0
11
311.25
21
7.5775020697242483e-15
31
0
0
LINE
5
128
100
AcDbEntity
8
0
100
AcDbLine
10
341.25
20
-2.9999999999999947
30
0
11
311.25
21
-2.9999999999999627
31
0
0
LINE
5
129
100
AcDbEntity
8
0
100
AcDbLine
10
435
20
34
30
0
11
435
21
27
31
0
0
LINE
5
130
100
AcDbEntity
8
0
100
AcDbLine
10
232.5
20
34.000000000000014
30
0
11
232.50000000000003
21
37.000000000000355
31
0
0
LINE
5
131
100
AcDbEntity
8
0
100
AcDbLine
10
435
20
0
30
0
11
341.25
21
5.740531871003218e-15
31
0
0
LINE
5
132
100
AcDbEntity
8
0
100
AcDbLine
10
311.25
20
7.5775020697242483e-15
30
0
11
232.5
21
1.2399548841366953e-14
31
0
0
LINE
5
133
100
AcDbEntity
8
0
100
AcDbLine
10
435
20
7.0000000000000009
30
0
11
438
21
7.0000000000000009
31
0
0
LINE
5
134
100
AcDbEntity
8
0
100
AcDbLine
10
311.25000000000006
20
37.000000000000213
30
0
11
311.25
21
34.000000000000014
31
0
0
LINE
5
135
100
AcDbEntity
8
0
100
AcDbLine
10
232.5
20
1.2399548841366953e-14
30
0
11
232.5
21
-2.9999999999999454
31
0
0
LINE
5
136
100
AcDbEntity
8
0
100
AcDbLine
10
435
20
0
30
0
11
435
21
7.0000000000000009
31
0
0
LINE
5
137
100
AcDbEntity
8
0
100
AcDbLine
10
311.25
20
34.000000000000014
30
0
11
232.5
21
34.000000000000014
31
0
0
LINE
5
138
100
AcDbEntity
8
0
100
AcDbLine
10
232.50000000000003
20
37.000000000000355
30
0
11
217.50000000000003
21
37.000000000000362
31
0
0
LINE
5
139
100
AcDbEntity
8
0
100
AcDbLine
10
232.5
20
-2.9999999999999454
30
0
11
217.5
21
-2.9999999999999249
31
0
0
LWPOLYLINE
5
140
100
AcDbEntity
8
0
100
AcDbPolyline
90
4
70
1
43
0.0
10
78.5
20
14.500000000000012
10
71.5
20
14.500000000000009
10
71.5
20
4.5000000000000089
10
78.500000000000213
20
4.5000000000000089
0
LWPOLYLINE
5
141
100
AcDbEntity
8
0
100
AcDbPolyline
90
4
70
1
43
0.0
10
98.500000000000227
20
4.5000000000000089
10
98.500000000000014
20
14.500000000000012
10
91.5
20
14.500000000000009
10
91.5
20
4.5000000000000089
0
LWPOLYLINE
5
142
100
AcDbEntity
8
0
100
AcDbPolyline
90
4
70
1
43
0.0
10
118.50000000000023
20
4.5000000000000089
10
118.50000000000001
20
14.500000000000012
10
111.5
20
14.500000000000009
10
111.5
20
4.5000000000000089
0
LWPOLYLINE
5
143
100
AcDbEntity
8
0
100
AcDbPolyline
90
4
70
1
43
0.0
10
138.50000000000023
20
4.5000000000000089
10
138.5
20
14.500000000000012
10
131.5
20
14.500000000000009
10
131.5
20
4.5000000000000089
0
LWPOLYLINE
5
144
100
AcDbEntity
8
0
100
AcDbPolyline
90
4
70
1
43
0.0
10
158.50000000000023
20
4.5000000000000089
10
158.5
20
14.500000000000012
10
151.5
20
14.500000000000009
10
151.5
20
4.5000000000000089
0
LWPOLYLINE
5
145
100
AcDbEntity
8
0
100
AcDbPolyline
90
4
70
1
43
0.0
10
178.50000000000023
20
4.5000000000000089
10
178.5
20
14.500000000000012
10
171.50000000000003
20
14.500000000000009
10
171.50000000000003
20
4.5000000000000089
0
LWPOLYLINE
5
146
100
AcDbEntity
8
0
100
AcDbPolyline
90
4
70
1
43
0.0
10
198.50000000000023
20
4.5000000000000089
10
198.5
20
14.500000000000012
10
191.50000000000003
20
14.500000000000009
10
191.50000000000003
20
4.5000000000000089
0
LWPOLYLINE
5
147
100
AcDbEntity
8
0
100
AcDbPolyline
90
4
70
1
43
0.0
10
218.50000000000023
20
4.5000000000000089
10
218.5
20
14.500000000000012
10
211.50000000000003
20
14.500000000000009
10
211.50000000000003
20
4.5000000000000089
0
LWPOLYLINE
5
148
100
AcDbEntity
8
0
100
AcDbPolyline
90
4
70
1
43
0.0
10
238.50000000000023
20
4.5000000000000089
10
238.5
20
14.500000000000012
10
231.50000000000003
20
14.500000000000009
10
231.50000000000003
20
4.5000000000000089
0
LWPOLYLINE
5
149
100
AcDbEntity
8
0
100
AcDbPolyline
90
4
70
1
43
0.0
10
258.50000000000023
20
4.5000000000000089
10
258.5
20
14.500000000000012
10
251.50000000000003
20
14.500000000000009
10
251.50000000000003
20
4.5000000000000089
0
LWPOLYLINE
5
150
100
AcDbEntity
8
0
100
AcDbPolyline
90
4
70
1
43
0.0
10
278.50000000000023
20
4.5000000000000089
10
278.5
20
14.500000000000012
10
271.5
20
14.500000000000009
10
271.5
20
4.5000000000000089
0
LWPOLYLINE
5
151
100
AcDbEntity
8
0
100
AcDbPolyline
90
4
70
1
43
0.0
10
298.50000000000023
20
4.5000000000000089
10
298.5
20
14.500000000000012
10
291.5
20
14.500000000000009
10
291.5
20
4.5000000000000089
0
LWPOLYLINE
5
152
100
AcDbEntity
8
0
100
AcDbPolyline
90
4
70
1
43
0.0
10
318.50000000000023
20
4.5000000000000089
10
318.5
20
14.500000000000012
10
311.5
20
14.500000000000009
10
311.5
20
4.5000000000000089
0
LWPOLYLINE
5
153
100
AcDbEntity
8
0
100
AcDbPolyline
90
4
70
1
43
0.0
10
338.50000000000023
20
4.5000000000000089
10
338.49999999999994
20
14.500000000000012
10
331.50000000000006
20
14.500000000000009
10
331.50000000000006
20
4.5000000000000089
0
LWPOLYLINE
5
154
100
AcDbEntity
8
0
100
AcDbPolyline
90
4
70
1
43
0.0
10
358.50000000000023
20
4.5000000000000089
10
358.49999999999994
20
14.500000000000012
10
351.50000000000006
20
14.500000000000009
10
351.50000000000006
20
4.5000000000000089
0
LWPOLYLINE
5
155
100
AcDbEntity
8
0
100
AcDbPolyline
90
4
70
1
43
0.0
10
378.50000000000023
20
4.5000000000000089
10
378.49999999999994
20
14.500000000000012
10
371.50000000000006
20
14.500000000000009
10
371.50000000000006
20
4.5000000000000089
0
CIRCLE
5
156
100
AcDbEntity
8
0
100
AcDbCircle
10
348.50000000000023
20
19.000000000000817
30
0
40
1.5000000000000053
210
0
220
0
230
1
0
CIRCLE
5
157
100
AcDbEntity
8
0
100
AcDbCircle
10
208.50000000000023
20
19.000000000000817
30
0
40
1.4999999999999858
210
0
220
0
230
1
0
CIRCLE
5
158
100
AcDbEntity
8
0
100
AcDbCircle
10
91.850000000000236
20
19.000000000000817
30
0
40
1.5000000000000104
210
0
220
0
230
1
0
ENDSEC
0
SECTION
2
OBJECTS
0
DICTIONARY
5
C
100
AcDbDictionary
3
ACAD_GROUP
350
D
3
ACAD_MLINESTYLE
350
17
0
DICTIONARY
5
D
100
AcDbDictionary
0
DICTIONARY
5
1A
330
C
100
AcDbDictionary
0
DICTIONARY
5
17
100
AcDbDictionary
0
ENDSEC
0
EOF
