0
SECTION
2
HEADER
9
$INSUNITS
70
4
9
$ACADVER
1
AC1014
9
$HANDSEED
5
FFFF
0
ENDSEC
0
SECTION
2
TABLES
0
TABLE
2
VPORT
5
8
100
AcDbSymbolTable
0
ENDTAB
0
TABLE
2
LTYPE
5
5
100
AcDbSymbolTable
0
LTYPE
5
14
100
AcDbSymbolTableRecord
100
AcDbLinetypeTableRecord
2
BYBLOCK
70
0
0
LTYPE
5
15
100
AcDbSymbolTableRecord
100
AcDbLinetypeTableRecord
2
BYLAYER
70
0
0
ENDTAB
0
TABLE
2
LAYER
5
2
100
AcDbSymbolTable
70
2
0
LAYER
5
50
100
AcDbSymbolTableRecord
100
AcDbLayerTableRecord
2
0
70
0
6
CONTINUOUS
0
ENDTAB
0
TABLE
2
STYLE
5
3
100
AcDbSymbolTable
70
1
0
STYLE
5
11
100
AcDbSymbolTableRecord
100
AcDbTextStyleTableRecord
2
STANDARD
70
0
0
ENDTAB
0
TABLE
2
VIEW
5
6
100
AcDbSymbolTable
70
0
0
ENDTAB
0
TABLE
2
UCS
5
7
100
AcDbSymbolTable
70
0
0
ENDTAB
0
TABLE
2
APPID
5
9
100
AcDbSymbolTable
70
2
0
APPID
5
12
100
AcDbSymbolTableRecord
100
AcDbRegAppTableRecord
2
ACAD
70
0
0
ENDTAB
0
TABLE
2
DIMSTYLE
5
A
100
AcDbSymbolTable
70
1
0
ENDTAB
0
TABLE
2
BLOCK_RECORD
5
1
100
AcDbSymbolTable
70
1
0
BLOCK_RECORD
5
1F
100
AcDbSymbolTableRecord
100
AcDbBlockTableRecord
2
*MODEL_SPACE
0
BLOCK_RECORD
5
1B
100
AcDbSymbolTableRecord
100
AcDbBlockTableRecord
2
*PAPER_SPACE
0
ENDTAB
0
ENDSEC
0
SECTION
2
BLOCKS
0
BLOCK
5
20
100
AcDbEntity
100
AcDbBlockBegin
2
*MODEL_SPACE
0
ENDBLK
5
21
100
AcDbEntity
100
AcDbBlockEnd
0
BLOCK
5
1C
100
AcDbEntity
100
AcDbBlockBegin
2
*PAPER_SPACE
0
ENDBLK
5
1D
100
AcDbEntity
100
AcDbBlockEnd
0
ENDSEC
0
SECTION
2
ENTITIES
0
LINE
5
100
100
AcDbEntity
8
0
100
AcDbLine
10
340.00000000000006
20
154.99999999999994
30
0
11
340.00000000000006
21
149.99999999999994
31
0
0
LWPOLYLINE
5
101
100
AcDbEntity
8
0
100
AcDbPolyline
90
4
70
1
43
0.0
10
123.75000000000007
20
162
10
123.75000000000007
20
165
10
93.750000000000057
20
165
10
93.750000000000057
20
162
0
LINE
5
102
100
AcDbEntity
8
0
100
AcDbLine
10
320.00000000000006
20
154.99999999999994
30
0
11
320.00000000000006
21
149.99999999999994
31
0
0
ARC
5
103
100
AcDbEntity
8
0
100
AcDbCircle
10
105.00000000000007
20
154.99999999999994
30
0
40
5
210
0
220
0
230
1
100
AcDbArc
50
0
51
180
0
LINE
5
104
100
AcDbEntity
8
0
100
AcDbLine
10
90.000000000000071
20
149.99999999999994
30
0
11
100.00000000000006
21
149.99999999999994
31
0
0
LINE
5
105
100
AcDbEntity
8
0
100
AcDbLine
10
90.000000000000071
20
154.99999999999994
30
0
11
90.000000000000071
21
149.99999999999994
31
0
0
LWPOLYLINE
5
106
100
AcDbEntity
8
0
100
AcDbPolyline
90
4
70
1
43
0.0
10
232.50000000000006
20
165
10
202.50000000000006
20
165
10
202.50000000000006
20
162
10
232.50000000000006
20
162
0
LINE
5
107
100
AcDbEntity
8
0
100
AcDbLine
10
190.00000000000006
20
149.99999999999994
30
0
11
200.00000000000006
21
149.99999999999994
31
0
0
LINE
5
108
100
AcDbEntity
8
0
100
AcDbLine
10
300.00000000000006
20
154.99999999999994
30
0
11
300.00000000000006
21
149.99999999999994
31
0
0
LINE
5
109
100
AcDbEntity
8
0
100
AcDbLine
10
130.00000000000006
20
149.99999999999994
30
0
11
140.00000000000006
21
149.99999999999994
31
0
0
LINE
5
110
100
AcDbEntity
8
0
100
AcDbLine
10
310.00000000000006
20
149.99999999999994
30
0
11
320.00000000000006
21
149.99999999999994
31
0
0
LINE
5
111
100
AcDbEntity
8
0
100
AcDbLine
10
290.00000000000006
20
154.99999999999994
30
0
11
290.00000000000006
21
149.99999999999994
31
0
0
LINE
5
112
100
AcDbEntity
8
0
100
AcDbLine
10
60.000000000000064
20
154.99999999999994
30
0
11
60.000000000000064
21
149.99999999999994
31
0
0
LINE
5
113
100
AcDbEntity
8
0
100
AcDbLine
10
190.00000000000006
20
154.99999999999994
30
0
11
190.00000000000006
21
149.99999999999994
31
0
0
LINE
5
114
100
AcDbEntity
8
0
100
AcDbLine
10
160.00000000000006
20
154.99999999999994
30
0
11
160.00000000000006
21
149.99999999999994
31
0
0
LINE
5
115
100
AcDbEntity
8
0
100
AcDbLine
10
80.000000000000071
20
154.99999999999994
30
0
11
80.000000000000071
21
149.99999999999994
31
0
0
LINE
5
116
100
AcDbEntity
8
0
100
AcDbLine
10
25.000000000000139
20
124.99999999999993
30
0
11
25.000000000000277
21
149.99999999999994
31
0
0
LINE
5
117
100
AcDbEntity
8
0
100
AcDbLine
10
120.00000000000007
20
154.99999999999994
30
0
11
120.00000000000007
21
149.99999999999994
31
0
0
LINE
5
118
100
AcDbEntity
8
0
100
AcDbLine
10
330.00000000000006
20
149.99999999999994
30
0
11
340.00000000000006
21
149.99999999999994
31
0
0
LWPOLYLINE
5
119
100
AcDbEntity
8
0
100
AcDbPolyline
90
4
70
1
43
0.0
10
341.25000000000006
20
162
10
341.25000000000006
20
165
10
311.25000000000006
20
165
10
311.25000000000006
20
162
0
ARC
5
120
100
AcDbEntity
8
0
100
AcDbCircle
10
65.000000000000071
20
154.99999999999994
30
0
40
4.9999999999999911
210
0
220
-0
230
1
100
AcDbArc
50
0
51
180
0
ARC
5
121
100
AcDbEntity
8
0
100
AcDbCircle
10
305.00000000000006
20
154.99999999999994
30
0
40
5
210
0
220
0
230
1
100
AcDbArc
50
0
51
180
0
ARC
5
122
100
AcDbEntity
8
0
100
AcDbCircle
10
205.00000000000006
20
154.99999999999994
30
0
40
5
210
0
220
0
230
1
100
AcDbArc
50
0
51
180
0
LINE
5
123
100
AcDbEntity
8
0
100
AcDbLine
10
150.00000000000006
20
154.99999999999994
30
0
11
150.00000000000006
21
149.99999999999994
31
0
0
LINE
5
124
100
AcDbEntity
8
0
100
AcDbLine
10
330.00000000000006
20
154.99999999999994
30
0
11
330.00000000000006
21
149.99999999999994
31
0
0
LINE
5
125
100
AcDbEntity
8
0
100
AcDbLine
10
370.00000000000006
20
149.99999999999994
30
0
11
410.00000000000023
21
149.99999999999994
31
0
0
LINE
5
126
100
AcDbEntity
8
0
100
AcDbLine
10
-2.5047225447081173e-13
20
200
30
0
11
-5.6292122110231007e-14
21
190
31
0
0
LINE
5
127
100
AcDbEntity
8
0
100
AcDbLine
10
-5.6292122110231007e-14
20
190
30
0
11
-3.0000000000000568
21
190
31
0
0
LINE
5
128
100
AcDbEntity
8
0
100
AcDbLine
10
350.00000000000006
20
154.99999999999994
30
0
11
350.00000000000006
21
149.99999999999994
31
0
0
LINE
5
129
100
AcDbEntity
8
0
100
AcDbLine
10
-3.0000000000000568
20
190
30
0
11
-3.0000000000002398
21
165
31
0
0
LINE
5
130
100
AcDbEntity
8
0
100
AcDbLine
10
434.99999999999972
20
164.99999999999994
30
0
11
437.99999999999966
21
165
31
0
0
LINE
5
131
100
AcDbEntity
8
0
100
AcDbLine
10
1.4008605734612918e-13
20
124.99999999999994
30
0
11
5.047296245061841e-14
21
162
31
0
0
LINE
5
132
100
AcDbEntity
8
0
100
AcDbLine
10
-3.0000000000002398
20
165
30
0
11
-4.3923400761880138e-13
21
165
31
0
0
LINE
5
133
100
AcDbEntity
8
0
100
AcDbLine
10
-4.3923400761880138e-13
20
165
30
0
11
1.4008605734612918e-13
21
124.99999999999994
31
0
0
LINE
5
134
100
AcDbEntity
8
0
100
AcDbLine
10
437.99999999999966
20
165
30
0
11
437.99999999999966
21
189.99999999999994
31
0
0
LINE
5
135
100
AcDbEntity
8
0
100
AcDbLine
10
434.99999999999972
20
189.99999999999994
30
0
11
434.99999999999972
21
199.99999999999994
31
0
0
LINE
5
136
100
AcDbEntity
8
0
100
AcDbLine
10
437.99999999999966
20
189.99999999999994
30
0
11
434.99999999999972
21
189.99999999999994
31
0
0
LINE
5
137
100
AcDbEntity
8
0
100
AcDbLine
10
310.00000000000006
20
154.99999999999994
30
0
11
310.00000000000006
21
149.99999999999994
31
0
0
LINE
5
138
100
AcDbEntity
8
0
100
AcDbLine
10
0
20
150
30
0
11
1.4008605734612918e-13
21
124.99999999999994
31
0
0
LINE
5
139
100
AcDbEntity
8
0
100
AcDbLine
10
350.00000000000006
20
149.99999999999994
30
0
11
360.00000000000006
21
149.99999999999994
31
0
0
LINE
5
140
100
AcDbEntity
8
0
100
AcDbLine
10
-3.0000000000002398
20
165
30
0
11
-4.3923400761880138e-13
21
165
31
0
0
ARC
5
141
100
AcDbEntity
8
0
100
AcDbCircle
10
225.00000000000006
20
154.99999999999994
30
0
40
5
210
0
220
0
230
1
100
AcDbArc
50
0
51
180
0
LINE
5
142
100
AcDbEntity
8
0
100
AcDbLine
10
220.00000000000006
20
154.99999999999994
30
0
11
220.00000000000006
21
149.99999999999994
31
0
0
LINE
5
143
100
AcDbEntity
8
0
100
AcDbLine
10
250.00000000000006
20
149.99999999999994
30
0
11
260.00000000000006
21
149.99999999999994
31
0
0
LINE
5
144
100
AcDbEntity
8
0
100
AcDbLine
10
260.00000000000006
20
154.99999999999994
30
0
11
260.00000000000006
21
149.99999999999994
31
0
0
LINE
5
145
100
AcDbEntity
8
0
100
AcDbLine
10
270.00000000000006
20
149.99999999999994
30
0
11
280.00000000000006
21
149.99999999999994
31
0
0
ARC
5
146
100
AcDbEntity
8
0
100
AcDbCircle
10
285.00000000000006
20
154.99999999999994
30
0
40
5
210
0
220
0
230
1
100
AcDbArc
50
0
51
180
0
LINE
5
147
100
AcDbEntity
8
0
100
AcDbLine
10
270.00000000000006
20
154.99999999999994
30
0
11
270.00000000000006
21
149.99999999999994
31
0
0
LINE
5
148
100
AcDbEntity
8
0
100
AcDbLine
10
210.00000000000006
20
149.99999999999994
30
0
11
220.00000000000006
21
149.99999999999994
31
0
0
LINE
5
149
100
AcDbEntity
8
0
100
AcDbLine
10
280.00000000000006
20
154.99999999999994
30
0
11
280.00000000000006
21
149.99999999999994
31
0
0
LINE
5
150
100
AcDbEntity
8
0
100
AcDbLine
10
240.00000000000006
20
154.99999999999994
30
0
11
240.00000000000006
21
149.99999999999994
31
0
0
LINE
5
151
100
AcDbEntity
8
0
100
AcDbLine
10
434.99999999999972
20
199.99999999999994
30
0
11
-2.5047225447081173e-13
21
200
31
0
0
LINE
5
152
100
AcDbEntity
8
0
100
AcDbLine
10
250.00000000000006
20
154.99999999999994
30
0
11
250.00000000000006
21
149.99999999999994
31
0
0
LINE
5
153
100
AcDbEntity
8
0
100
AcDbLine
10
150.00000000000006
20
149.99999999999994
30
0
11
160.00000000000006
21
149.99999999999994
31
0
0
ARC
5
154
100
AcDbEntity
8
0
100
AcDbCircle
10
145.00000000000006
20
154.99999999999994
30
0
40
5
210
0
220
0
230
1
100
AcDbArc
50
0
51
180
0
LINE
5
155
100
AcDbEntity
8
0
100
AcDbLine
10
230.00000000000006
20
149.99999999999994
30
0
11
240.00000000000006
21
149.99999999999994
31
0
0
ARC
5
156
100
AcDbEntity
8
0
100
AcDbCircle
10
265.00000000000006
20
154.99999999999994
30
0
40
5
210
0
220
0
230
1
100
AcDbArc
50
0
51
180
0
LINE
5
157
100
AcDbEntity
8
0
100
AcDbLine
10
70.000000000000057
20
149.99999999999994
30
0
11
80.000000000000071
21
149.99999999999994
31
0
0
ARC
5
158
100
AcDbEntity
8
0
100
AcDbCircle
10
165.00000000000006
20
154.99999999999994
30
0
40
5
210
0
220
0
230
1
100
AcDbArc
50
0
51
180
0
LINE
5
159
100
AcDbEntity
8
0
100
AcDbLine
10
210.00000000000006
20
154.99999999999994
30
0
11
210.00000000000006
21
149.99999999999994
31
0
0
ARC
5
160
100
AcDbEntity
8
0
100
AcDbCircle
10
245.00000000000006
20
154.99999999999994
30
0
40
5
210
0
220
0
230
1
100
AcDbArc
50
0
51
180
0
LINE
5
161
100
AcDbEntity
8
0
100
AcDbLine
10
230.00000000000006
20
154.99999999999994
30
0
11
230.00000000000006
21
149.99999999999994
31
0
0
ARC
5
162
100
AcDbEntity
8
0
100
AcDbCircle
10
125.00000000000007
20
154.99999999999994
30
0
40
5
210
0
220
0
230
1
100
AcDbArc
50
0
51
180
0
ARC
5
163
100
AcDbEntity
8
0
100
AcDbCircle
10
85.000000000000071
20
154.99999999999994
30
0
40
5
210
0
220
0
230
1
100
AcDbArc
50
0
51
180
0
LINE
5
164
100
AcDbEntity
8
0
100
AcDbLine
10
25.000000000000277
20
149.99999999999994
30
0
11
60.000000000000064
21
149.99999999999994
31
0
0
LINE
5
165
100
AcDbEntity
8
0
100
AcDbLine
10
100.00000000000007
20
154.99999999999994
30
0
11
100.00000000000007
21
149.99999999999994
31
0
0
LINE
5
166
100
AcDbEntity
8
0
100
AcDbLine
10
130.00000000000006
20
154.99999999999994
30
0
11
130.00000000000006
21
149.99999999999994
31
0
0
LINE
5
167
100
AcDbEntity
8
0
100
AcDbLine
10
290.00000000000006
20
149.99999999999994
30
0
11
300.00000000000006
21
149.99999999999994
31
0
0
LINE
5
168
100
AcDbEntity
8
0
100
AcDbLine
10
170.00000000000006
20
154.99999999999994
30
0
11
170.00000000000006
21
149.99999999999994
31
0
0
LINE
5
169
100
AcDbEntity
8
0
100
AcDbLine
10
140.00000000000006
20
154.99999999999994
30
0
11
140.00000000000006
21
149.99999999999994
31
0
0
LINE
5
170
100
AcDbEntity
8
0
100
AcDbLine
10
110.00000000000007
20
149.99999999999994
30
0
11
120.00000000000006
21
149.99999999999994
31
0
0
LINE
5
171
100
AcDbEntity
8
0
100
AcDbLine
10
70.000000000000057
20
154.99999999999994
30
0
11
70.000000000000057
21
149.99999999999994
31
0
0
ARC
5
172
100
AcDbEntity
8
0
100
AcDbCircle
10
185.00000000000006
20
154.99999999999994
30
0
40
5
210
0
220
0
230
1
100
AcDbArc
50
0
51
180
0
LINE
5
173
100
AcDbEntity
8
0
100
AcDbLine
10
110.00000000000007
20
154.99999999999994
30
0
11
110.00000000000007
21
149.99999999999994
31
0
0
LINE
5
174
100
AcDbEntity
8
0
100
AcDbLine
10
170.00000000000006
20
149.99999999999994
30
0
11
180.00000000000006
21
149.99999999999994
31
0
0
ARC
5
175
100
AcDbEntity
8
0
100
AcDbCircle
10
325.00000000000006
20
154.99999999999994
30
0
40
5
210
0
220
0
230
1
100
AcDbArc
50
0
51
180
0
LINE
5
176
100
AcDbEntity
8
0
100
AcDbLine
10
180.00000000000006
20
154.99999999999994
30
0
11
180.00000000000006
21
149.99999999999994
31
0
0
LINE
5
177
100
AcDbEntity
8
0
100
AcDbLine
10
200.00000000000006
20
154.99999999999994
30
0
11
200.00000000000006
21
149.99999999999994
31
0
0
LINE
5
178
100
AcDbEntity
8
0
100
AcDbLine
10
370.00000000000006
20
154.99999999999994
30
0
11
370.00000000000006
21
149.99999999999994
31
0
0
LINE
5
179
100
AcDbEntity
8
0
100
AcDbLine
10
435.00000000000142
20
149.99999999999994
30
0
11
434.99999999999972
21
164.99999999999994
31
0
0
LINE
5
180
100
AcDbEntity
8
0
100
AcDbLine
10
360.00000000000006
20
154.99999999999994
30
0
11
360.00000000000006
21
149.99999999999994
31
0
0
ARC
5
181
100
AcDbEntity
8
0
100
AcDbCircle
10
345.00000000000006
20
154.99999999999994
30
0
40
5
210
0
220
0
230
1
100
AcDbArc
50
0
51
180
0
ARC
5
182
100
AcDbEntity
8
0
100
AcDbCircle
10
365.00000000000006
20
154.99999999999994
30
0
40
5
210
0
220
0
230
1
100
AcDbArc
50
0
51
180
0
LINE
5
183
100
AcDbEntity
8
0
100
AcDbLine
10
14.000000000000137
20
137.49999999999997
30
0
11
14.000000000000137
21
124.99999999999993
31
0
0
LINE
5
184
100
AcDbEntity
8
0
100
AcDbLine
10
11.000000000000137
20
137.49999999999997
30
0
11
11.000000000000131
21
124.99999999999993
31
0
0
ARC
5
185
100
AcDbEntity
8
0
100
AcDbCircle
10
12.500000000000139
20
137.49999999999997
30
0
40
1.4999999999999991
210
0
220
0
230
1
100
AcDbArc
50
0
51
180
0
LINE
5
186
100
AcDbEntity
8
0
100
AcDbLine
10
1.4008605734612918e-13
20
124.99999999999994
30
0
11
11.000000000000131
21
124.99999999999993
31
0
0
LINE
5
187
100
AcDbEntity
8
0
100
AcDbLine
10
14.000000000000137
20
124.99999999999993
30
0
11
25.000000000000139
21
124.99999999999993
31
0
0
LINE
5
188
100
AcDbEntity
8
0
100
AcDbLine
10
434.99999999999989
20
165
30
0
11
434.99999999999932
21
124.99999999999994
31
0
0
LINE
5
189
100
AcDbEntity
8
0
100
AcDbLine
10
434.99999999999932
20
124.99999999999994
30
0
11
423.99999999999932
21
124.99999999999993
31
0
0
LINE
5
190
100
AcDbEntity
8
0
100
AcDbLine
10
423.99999999999932
20
137.49999999999997
30
0
11
423.99999999999932
21
124.99999999999993
31
0
0
LINE
5
191
100
AcDbEntity
8
0
100
AcDbLine
10
420.99999999999932
20
137.49999999999997
30
0
11
420.99999999999932
21
124.99999999999993
31
0
0
ARC
5
192
100
AcDbEntity
8
0
100
AcDbCircle
10
422.49999999999932
20
137.49999999999997
30
0
40
1.5000000000000568
210
0
220
0
230
1
100
AcDbArc
50
0
51
180
0
LINE
5
193
100
AcDbEntity
8
0
100
AcDbLine
10
420.99999999999932
20
124.99999999999993
30
0
11
409.99999999999932
21
124.99999999999993
31
0
0
LINE
5
194
100
AcDbEntity
8
0
100
AcDbLine
10
409.99999999999932
20
124.99999999999993
30
0
11
409.99999999999915
21
149.99999999999994
31
0
0
ENDSEC
0
SECTION
2
OBJECTS
0
DICTIONARY
5
C
100
AcDbDictionary
3
ACAD_GROUP
350
D
3
ACAD_MLINESTYLE
350
17
0
DICTIONARY
5
D
100
AcDbDictionary
0
DICTIONARY
5
1A
330
C
100
AcDbDictionary
0
DICTIONARY
5
17
100
AcDbDictionary
0
ENDSEC
0
EOF
